<svg width="60" height="60" viewBox="0 0 60 60" fill="none" xmlns="http://www.w3.org/2000/svg">
<circle cx="30" cy="30" r="30" fill="#3671EE"/>
<path d="M46.0714 36.7604V23.0994C46.0708 22.5005 45.9054 21.9123 45.592 21.3938C45.2786 20.8753 44.8281 20.4447 44.2857 20.1452L31.7857 13.3147C31.2428 13.015 30.6269 12.8572 30 12.8572C29.3731 12.8572 28.7572 13.015 28.2143 13.3147L15.7143 20.1452C15.1719 20.4447 14.7214 20.8753 14.408 21.3938C14.0945 21.9123 13.9292 22.5005 13.9286 23.0994V36.7604C13.9292 37.3593 14.0945 37.9475 14.408 38.466C14.7214 38.9845 15.1719 39.4151 15.7143 39.7146L28.2143 46.5451C28.7572 46.8448 29.3731 47.0026 30 47.0026C30.6269 47.0026 31.2428 46.8448 31.7857 46.5451L44.2857 39.7146C44.8281 39.4151 45.2786 38.9845 45.592 38.466C45.9054 37.9475 46.0708 37.3593 46.0714 36.7604Z" stroke="white" stroke-width="2" stroke-linecap="round" stroke-linejoin="round"/>
<path d="M21.9643 16.6277L30 21.0675L38.0357 16.6277" stroke="white" stroke-width="2" stroke-linecap="round" stroke-linejoin="round"/>
<path d="M21.9643 43.2326V34.37L13.9286 29.9302" stroke="white" stroke-width="2" stroke-linecap="round" stroke-linejoin="round"/>
<path d="M46.0714 29.9302L38.0357 34.37V43.2326" stroke="white" stroke-width="2" stroke-linecap="round" stroke-linejoin="round"/>
<path d="M14.4107 21.3235L30 29.947L45.5893 21.3235" stroke="white" stroke-width="2" stroke-linecap="round" stroke-linejoin="round"/>
<path d="M30 47.143V29.9302" stroke="white" stroke-width="2" stroke-linecap="round" stroke-linejoin="round"/>
</svg>
