<?xml version="1.0" encoding="UTF-8"?>
<!DOCTYPE svg PUBLIC "-//W3C//DTD SVG 1.1//EN" "http://www.w3.org/Graphics/SVG/1.1/DTD/svg11.dtd">
<svg xmlns="http://www.w3.org/2000/svg" version="1.1" width="252px" height="288px" style="shape-rendering:geometricPrecision; text-rendering:geometricPrecision; image-rendering:optimizeQuality; fill-rule:evenodd; clip-rule:evenodd" xmlns:xlink="http://www.w3.org/1999/xlink">
<g><path style="opacity:0.956" fill="#fafafa" d="M 22.5,-0.5 C 24.8333,-0.5 27.1667,-0.5 29.5,-0.5C 39.8768,11.8749 50.0435,24.5416 60,37.5C 61.5429,39.3783 63.3762,40.8783 65.5,42C 96.1056,43.3107 126.772,43.9773 157.5,44C 165.578,44.4042 172.245,47.5709 177.5,53.5C 188.992,39.8366 200.326,26.0033 211.5,12C 220.961,7.83253 227.461,10.6659 231,20.5C 237.593,79.0098 244.426,137.343 251.5,195.5C 251.5,204.5 251.5,213.5 251.5,222.5C 246.887,237.768 236.554,246.101 220.5,247.5C 219.421,258.219 217.921,268.885 216,279.5C 214.695,282.961 212.529,285.628 209.5,287.5C 206.5,287.5 203.5,287.5 200.5,287.5C 198.849,286.03 197.015,284.697 195,283.5C 186.288,271.91 177.454,260.41 168.5,249C 137.5,248.667 106.5,248.333 75.5,248C 63.7605,248.09 53.5938,244.257 45,236.5C 41.1456,231.461 38.9789,225.795 38.5,219.5C 28.3184,220.248 18.6518,218.415 9.5,214C 4.31401,210.336 0.980676,205.502 -0.5,199.5C -0.5,191.167 -0.5,182.833 -0.5,174.5C 6.50128,118.001 13.3346,61.3342 20,4.5C 20.8466,2.80678 21.6799,1.14011 22.5,-0.5 Z M 30.5,21.5 C 38.9271,31.7691 47.5938,41.9358 56.5,52C 58.5,53 60.5,54 62.5,55C 94.1327,56.2882 125.799,56.9549 157.5,57C 161.828,57.3263 165.328,59.1596 168,62.5C 171.017,70.9131 173.017,79.5797 174,88.5C 178.853,120.475 183.52,152.475 188,184.5C 191.337,196.792 186.837,203.958 174.5,206C 124.833,208 75.1667,208 25.5,206C 15.3811,204.877 10.7145,199.211 11.5,189C 17.8749,133.168 24.2082,77.3347 30.5,21.5 Z M 217.5,23.5 C 225.622,85.9251 232.956,148.592 239.5,211.5C 239.294,227.205 231.294,235.039 215.5,235C 168.5,235.667 121.5,235.667 74.5,235C 66.3746,235.075 59.5413,232.242 54,226.5C 52.5886,224.35 51.7553,222.016 51.5,219.5C 92.5014,219.667 133.501,219.5 174.5,219C 192.516,217.653 201.516,207.986 201.5,190C 196.259,149.222 190.259,108.556 183.5,68C 195.19,53.4606 206.523,38.6272 217.5,23.5 Z M 185.5,249.5 C 192.648,248.508 199.981,248.175 207.5,248.5C 206.381,256.83 205.215,265.163 204,273.5C 197.97,265.315 191.803,257.315 185.5,249.5 Z"/></g>
<g><path style="opacity:0.948" fill="#fafafa" d="M 51.5,116.5 C 65.4551,119.077 69.2884,126.743 63,139.5C 51.305,146.657 43.4717,143.657 39.5,130.5C 40.3642,122.98 44.3642,118.313 51.5,116.5 Z"/></g>
<g><path style="opacity:0.944" fill="#fafafa" d="M 97.5,116.5 C 106.131,116.964 111.131,121.464 112.5,130C 109.163,143.225 101.497,146.558 89.5,140C 82.9144,128.922 85.581,121.089 97.5,116.5 Z"/></g>
<g><path style="opacity:0.947" fill="#fafafa" d="M 143.5,116.5 C 156.426,118.359 160.593,125.359 156,137.5C 149.937,144.413 143.104,145.247 135.5,140C 128.911,128.931 131.578,121.098 143.5,116.5 Z"/></g>
</svg>
