<?xml version="1.0" encoding="UTF-8"?>
<!DOCTYPE svg PUBLIC "-//W3C//DTD SVG 1.1//EN" "http://www.w3.org/Graphics/SVG/1.1/DTD/svg11.dtd">
<svg xmlns="http://www.w3.org/2000/svg" version="1.1" width="252px" height="288px" style="shape-rendering:geometricPrecision; text-rendering:geometricPrecision; image-rendering:optimizeQuality; fill-rule:evenodd; clip-rule:evenodd" xmlns:xlink="http://www.w3.org/1999/xlink">
<g><path style="opacity:0.968" fill="#fafafa" d="M 22.5,-0.5 C 24.8333,-0.5 27.1667,-0.5 29.5,-0.5C 39.8768,11.8749 50.0435,24.5416 60,37.5C 61.5429,39.3783 63.3762,40.8783 65.5,42C 96.1056,43.3107 126.772,43.9773 157.5,44C 165.578,44.4042 172.245,47.5709 177.5,53.5C 188.992,39.8366 200.326,26.0033 211.5,12C 220.961,7.83253 227.461,10.6659 231,20.5C 237.593,79.0098 244.426,137.343 251.5,195.5C 251.5,204.5 251.5,213.5 251.5,222.5C 246.887,237.768 236.554,246.101 220.5,247.5C 219.421,258.219 217.921,268.885 216,279.5C 214.695,282.961 212.529,285.628 209.5,287.5C 206.5,287.5 203.5,287.5 200.5,287.5C 198.849,286.03 197.015,284.697 195,283.5C 186.288,271.91 177.454,260.41 168.5,249C 137.5,248.667 106.5,248.333 75.5,248C 63.7605,248.09 53.5938,244.257 45,236.5C 41.1456,231.461 38.9789,225.795 38.5,219.5C 28.3184,220.248 18.6518,218.415 9.5,214C 4.31401,210.336 0.980676,205.502 -0.5,199.5C -0.5,191.167 -0.5,182.833 -0.5,174.5C 6.50128,118.001 13.3346,61.3342 20,4.5C 20.8466,2.80678 21.6799,1.14011 22.5,-0.5 Z M 217.5,23.5 C 225.622,85.9251 232.956,148.592 239.5,211.5C 239.294,227.205 231.294,235.039 215.5,235C 168.5,235.667 121.5,235.667 74.5,235C 66.3746,235.075 59.5413,232.242 54,226.5C 52.5886,224.35 51.7553,222.016 51.5,219.5C 92.5014,219.667 133.501,219.5 174.5,219C 192.516,217.653 201.516,207.986 201.5,190C 196.259,149.222 190.259,108.556 183.5,68C 195.19,53.4606 206.523,38.6272 217.5,23.5 Z M 185.5,249.5 C 192.648,248.508 199.981,248.175 207.5,248.5C 206.381,256.83 205.215,265.163 204,273.5C 197.97,265.315 191.803,257.315 185.5,249.5 Z"/></g>
<g><path style="opacity:1" fill="#3771ee" d="M 30.5,20.5 C 37.8028,29.3126 44.9694,38.3126 52,47.5C 55.3143,50.8177 59.1476,53.3177 63.5,55C 94.1667,55.3333 124.833,55.6667 155.5,56C 160.352,56.4123 164.519,58.2456 168,61.5C 170.593,66.535 172.259,71.8683 173,77.5C 178.093,110.817 183.093,144.15 188,177.5C 188.856,185.232 188.523,192.898 187,200.5C 182.662,204.511 177.495,206.677 171.5,207C 124.5,207.667 77.5,207.667 30.5,207C 24.357,206.927 18.857,205.093 14,201.5C 13.1376,199.913 12.4709,198.246 12,196.5C 11.3333,189.833 11.3333,183.167 12,176.5C 18.2777,124.503 24.4444,72.5033 30.5,20.5 Z"/></g>
<g><path style="opacity:1" fill="#f6f7fa" d="M 48.5,117.5 C 60.9853,116.484 66.4853,122.151 65,134.5C 60.5236,142.825 54.0236,144.991 45.5,141C 38.0719,132.011 39.0719,124.178 48.5,117.5 Z"/></g>
<g><path style="opacity:1" fill="#f7f8fa" d="M 94.5,117.5 C 109.439,117.598 114.272,124.598 109,138.5C 99.9715,146.107 92.6382,144.774 87,134.5C 85.1812,126.813 87.6812,121.146 94.5,117.5 Z"/></g>
<g><path style="opacity:1" fill="#f6f7fa" d="M 140.5,117.5 C 155.462,117.617 160.296,124.617 155,138.5C 145.972,146.107 138.638,144.774 133,134.5C 131.202,126.775 133.702,121.108 140.5,117.5 Z"/></g>
</svg>
