<svg width="48" height="48" viewBox="0 0 48 48" fill="none" xmlns="http://www.w3.org/2000/svg">
<g clip-path="url(#clip0_7888_11187)">
<path d="M0 24C0 10.7452 10.7452 0 24 0C37.2548 0 48 10.7452 48 24V48H24C10.7452 48 0 37.2548 0 24Z" fill="#202124"/>
<path fill-rule="evenodd" clip-rule="evenodd" d="M12.8091 12.0485C14.0541 11.6283 18.5652 13.9872 20.7516 17.3046C22.8934 16.9169 24.9906 16.9169 27.0877 17.3477C29.1403 14.5042 32.973 11.9434 34.941 12.0485C36 13.3091 35.3426 17.994 34.4501 21.0098C38.0198 29.3248 35.4318 33.8917 26.5969 35.7873C24.8121 36.132 22.1348 36.0458 20.35 35.615C13.1215 33.8917 9.95338 29.7557 13.3892 21.2252C12.4521 18.511 11.5676 13.204 12.8091 12.0485ZM20 24.5C20 25.3284 19.3284 26 18.5 26C17.6716 26 17 25.3284 17 24.5C17 23.6716 17.6716 23 18.5 23C19.3284 23 20 23.6716 20 24.5ZM29 24.5C29 25.3284 28.3284 26 27.5 26C26.6716 26 26 25.3284 26 24.5C26 23.6716 26.6716 23 27.5 23C28.3284 23 29 23.6716 29 24.5Z" fill="white"/>
</g>
<defs>
<clipPath id="clip0_7888_11187">
<rect width="48" height="48" fill="white"/>
</clipPath>
</defs>
</svg>
