<svg width="60" height="60" viewBox="0 0 60 60" fill="none" xmlns="http://www.w3.org/2000/svg">
<circle opacity="0.25" cx="30" cy="30" r="30" fill="#3671EE"/>
<circle opacity="0.5" cx="30" cy="30" r="26" fill="#3671EE"/>
<path d="M45 36.3097V23.5594C44.9994 23.0004 44.8451 22.4514 44.5526 21.9675C44.26 21.4835 43.8396 21.0817 43.3333 20.8022L31.6667 14.4271C31.1599 14.1473 30.5851 14 30 14C29.4149 14 28.8401 14.1473 28.3333 14.4271L16.6667 20.8022C16.1604 21.0817 15.74 21.4835 15.4474 21.9675C15.1549 22.4514 15.0006 23.0004 15 23.5594V36.3097C15.0006 36.8686 15.1549 37.4176 15.4474 37.9016C15.74 38.3855 16.1604 38.7874 16.6667 39.0669L28.3333 45.442C28.8401 45.7218 29.4149 45.8691 30 45.8691C30.5851 45.8691 31.1599 45.7218 31.6667 45.442L43.3333 39.0669C43.8396 38.7874 44.26 38.3855 44.5526 37.9016C44.8451 37.4176 44.9994 36.8686 45 36.3097Z" stroke="white" stroke-width="2" stroke-linecap="round" stroke-linejoin="round"/>
<path d="M22.5 17.519L30 21.6629L37.5 17.519" stroke="white" stroke-width="2" stroke-linecap="round" stroke-linejoin="round"/>
<path d="M22.5 42.3501V34.0784L15 29.9346" stroke="white" stroke-width="2" stroke-linecap="round" stroke-linejoin="round"/>
<path d="M45 29.9346L37.5 34.0784V42.3501" stroke="white" stroke-width="2" stroke-linecap="round" stroke-linejoin="round"/>
<path d="M15.4501 21.9019L30.0001 29.9504L44.5501 21.9019" stroke="white" stroke-width="2" stroke-linecap="round" stroke-linejoin="round"/>
<path d="M30 45.9999V29.9346" stroke="white" stroke-width="2" stroke-linecap="round" stroke-linejoin="round"/>
</svg>
