<svg width="8" height="14" viewBox="0 0 8 14" fill="none" xmlns="http://www.w3.org/2000/svg">
<path fill="currentColor" d="M8 7C8 6.79839 7.92638 6.62097 7.77096 6.46774L1.28425 0.217742C1.14519 0.0725803 0.965236 -3.38676e-07 0.752557 -3.20083e-07C0.327199 -2.82897e-07 4.29534e-07 0.314516 4.66195e-07 0.733871C4.84526e-07 0.943548 0.08998 1.12097 0.220859 1.25806L6.17587 7L0.22086 12.7419C0.089981 12.879 1.54417e-06 13.0645 1.5618e-06 13.2661C1.59846e-06 13.6855 0.3272 14 0.752558 14C0.965237 14 1.1452 13.9274 1.28426 13.7903L7.77096 7.53226C7.92638 7.3871 8 7.20161 8 7Z"/>
</svg>
