<svg width="8" height="15" viewBox="0 0 8 15" fill="none" xmlns="http://www.w3.org/2000/svg">
<path opacity="0.3" d="M8 7.49997C8 7.30956 7.92975 7.142 7.78144 6.99728L1.59151 1.09451C1.45881 0.95741 1.28709 0.888862 1.08414 0.888862C0.678241 0.888862 0.366012 1.18591 0.366012 1.58196C0.366012 1.77999 0.451875 1.94755 0.576766 2.07703L6.25933 7.49997L0.576767 12.9229C0.451876 13.0524 0.366013 13.2276 0.366013 13.418C0.366014 13.814 0.678242 14.1111 1.08414 14.1111C1.28709 14.1111 1.45881 14.0425 1.59151 13.9131L7.78144 8.00266C7.92975 7.86556 8 7.69038 8 7.49997Z" fill="#333333"/>
</svg>
