<svg width="11" height="13" viewBox="0 0 11 13" fill="none" xmlns="http://www.w3.org/2000/svg">
<path d="M1.55462 13C1.24461 13 0.983605 12.8866 0.771608 12.6598C0.559612 12.4336 0.453613 12.1551 0.453613 11.8243V2.64407H1.34813V11.8243C1.34813 11.886 1.36823 11.938 1.40842 11.9803C1.44862 12.0232 1.49735 12.0446 1.55462 12.0446H8.50674V13H1.55462ZM3.68808 10.7226C3.37862 10.7226 3.11761 10.6095 2.90507 10.3833C2.69307 10.1565 2.58707 9.87794 2.58707 9.54773V1.19336C2.58707 0.862554 2.69307 0.581107 2.90507 0.349017C3.11761 0.116339 3.37862 0 3.68808 0H9.86627C10.1757 0 10.4395 0.116339 10.6575 0.349017C10.8756 0.581107 10.9846 0.862554 10.9846 1.19336V9.54773C10.9846 9.87794 10.8756 10.1565 10.6575 10.3833C10.4395 10.6095 10.1757 10.7226 9.86627 10.7226H3.68808ZM3.68808 9.76807H9.86627C9.92354 9.76807 9.97502 9.74662 10.0207 9.70373C10.0664 9.66084 10.0893 9.60884 10.0893 9.54773V1.19336C10.0893 1.13225 10.0664 1.07702 10.0207 1.02766C9.97502 0.978893 9.92354 0.954508 9.86627 0.954508H3.68808C3.63081 0.954508 3.58208 0.978893 3.54188 1.02766C3.50169 1.07702 3.48159 1.13225 3.48159 1.19336V9.54773C3.48159 9.60884 3.50169 9.66084 3.54188 9.70373C3.58208 9.74662 3.63081 9.76807 3.68808 9.76807Z" fill="#1C1B1F"/>
</svg>
