<svg width="13" height="16" viewBox="0 0 13 16" fill="none" xmlns="http://www.w3.org/2000/svg">
<path d="M1.30038 2.78033L1.3 11.3333C1.3 13.1007 2.641 14.5467 4.33631 14.6596L4.55 14.6667L10.2887 14.6676C10.0208 15.4439 9.29864 16 8.45 16H3.9C1.74609 16 0 14.2092 0 12V4.66667C0 3.79571 0.542802 3.05479 1.30038 2.78033ZM11.05 0C12.1269 0 13 0.895427 13 2V11.3333C13 12.4379 12.1269 13.3333 11.05 13.3333H4.55C3.47304 13.3333 2.6 12.4379 2.6 11.3333V2C2.6 0.895427 3.47304 0 4.55 0H11.05ZM11.05 1.33333H4.55C4.19102 1.33333 3.9 1.63181 3.9 2V11.3333C3.9 11.7015 4.19102 12 4.55 12H11.05C11.4089 12 11.7 11.7015 11.7 11.3333V2C11.7 1.63181 11.4089 1.33333 11.05 1.33333Z" fill="#212121"/>
</svg>
