<svg width="32" height="32" viewBox="0 0 32 32" xmlns="http://www.w3.org/2000/svg">
<path fill-rule="evenodd" clip-rule="evenodd" d="M2.66663 16C2.66663 23.3638 8.63616 29.3334 16 29.3334C23.3638 29.3334 29.3333 23.3638 29.3333 16C29.3333 8.63622 23.3638 2.66669 16 2.66669C8.63616 2.66669 2.66663 8.63622 2.66663 16ZM27.7333 16C27.7333 22.4802 22.4801 27.7334 16 27.7334C9.51982 27.7334 4.26663 22.4802 4.26663 16C4.26663 9.51988 9.51982 4.26669 16 4.26669C22.4801 4.26669 27.7333 9.51988 27.7333 16ZM24 16.6667C24 21.085 20.4182 24.6667 16 24.6667C11.5817 24.6667 7.99996 21.085 7.99996 16.6667H24ZM22.1983 18.2667C21.4879 21.0271 18.9821 23.0667 16 23.0667C13.0178 23.0667 10.5121 21.0271 9.80159 18.2667H22.1983ZM11.3333 14C12.4379 14 13.3333 13.1046 13.3333 12C13.3333 10.8955 12.4379 10 11.3333 10C10.2287 10 9.33329 10.8955 9.33329 12C9.33329 13.1046 10.2287 14 11.3333 14ZM22.6666 12C22.6666 13.1046 21.7712 14 20.6666 14C19.5621 14 18.6666 13.1046 18.6666 12C18.6666 10.8955 19.5621 10 20.6666 10C21.7712 10 22.6666 10.8955 22.6666 12Z" fill-opacity="0.9"/>
</svg>
