<svg width="24" height="24" viewBox="0 0 24 24" fill="none" xmlns="http://www.w3.org/2000/svg">
<path d="M17.8962 4.42031L17.8168 4.49415L4.79988 17.5102C4.64665 17.6634 4.5365 17.8043 4.46327 17.9335C3.20792 16.3095 2.47378 14.2412 2.47378 11.9637C2.47378 6.55015 6.55122 2.43631 11.9634 2.43631C14.2347 2.43631 16.2796 3.16554 17.8962 4.42031ZM6.4226 19.8178C6.53891 19.7458 6.66137 19.6412 6.79552 19.5058L19.8112 6.48985L19.8364 6.46523C20.9072 8.01477 21.5262 9.91261 21.5262 12C21.5262 17.4062 17.4057 21.5637 11.9997 21.5637C9.88775 21.5637 7.97149 20.9268 6.4226 19.8178ZM0 12C0 18.6308 5.37525 24 11.9997 24C18.6254 24 24 18.6308 24 12C24 5.36923 18.6254 0 12.0003 0C5.37525 0 0 5.36923 0 12Z" fill="#D53554"/>
</svg>
