<svg width="27" height="29" viewBox="0 0 27 29" fill="none" xmlns="http://www.w3.org/2000/svg">
<mask id="path-1-inside-1_9427_26802" fill="white">
<path d="M18.8421 28.4812L7.39599 28.4812C5.66797 28.4812 4.31727 28.4812 3.27939 28.3447C2.21824 28.2054 1.39583 27.9138 0.793623 27.2659C0.19145 26.6181 -0.0010736 25.818 0.000463806 24.8183C0.00200312 23.8415 0.192982 22.5947 0.437873 20.9987L1.85634 11.7353C2.04424 10.5086 2.19209 9.54477 2.41235 8.79494C2.63875 8.0279 2.95447 7.43035 3.5197 6.97356C4.0834 6.51534 4.76257 6.30849 5.60966 6.20795C6.43673 6.11171 7.48092 6.11171 8.81005 6.11171L15.9594 6.11171C16.9759 6.11171 17.3178 6.10022 17.6058 5.9652C17.8938 5.83161 18.1094 5.58309 18.7193 4.82466L21.49 1.37866C21.6825 1.13878 21.8581 0.920436 22.0151 0.773933C22.1599 0.637474 22.4495 0.406208 22.8407 0.505321C23.2319 0.605873 23.3551 0.941995 23.4059 1.12729C23.4613 1.3284 23.4937 1.5999 23.5291 1.89724L25.8285 21.2029C26.0133 22.7585 26.1581 23.9766 26.1304 24.9305C26.1011 25.9044 25.8886 26.6829 25.2895 27.3078C24.6888 27.9326 23.8833 28.2141 22.8484 28.3492C21.835 28.4813 20.5228 28.4813 18.8426 28.4813L18.8421 28.4812Z"/>
</mask>
<path d="M18.8421 28.4812L7.39599 28.4812C5.66797 28.4812 4.31727 28.4812 3.27939 28.3447C2.21824 28.2054 1.39583 27.9138 0.793623 27.2659C0.19145 26.6181 -0.0010736 25.818 0.000463806 24.8183C0.00200312 23.8415 0.192982 22.5947 0.437873 20.9987L1.85634 11.7353C2.04424 10.5086 2.19209 9.54477 2.41235 8.79494C2.63875 8.0279 2.95447 7.43035 3.5197 6.97356C4.0834 6.51534 4.76257 6.30849 5.60966 6.20795C6.43673 6.11171 7.48092 6.11171 8.81005 6.11171L15.9594 6.11171C16.9759 6.11171 17.3178 6.10022 17.6058 5.9652C17.8938 5.83161 18.1094 5.58309 18.7193 4.82466L21.49 1.37866C21.6825 1.13878 21.8581 0.920436 22.0151 0.773933C22.1599 0.637474 22.4495 0.406208 22.8407 0.505321C23.2319 0.605873 23.3551 0.941995 23.4059 1.12729C23.4613 1.3284 23.4937 1.5999 23.5291 1.89724L25.8285 21.2029C26.0133 22.7585 26.1581 23.9766 26.1304 24.9305C26.1011 25.9044 25.8886 26.6829 25.2895 27.3078C24.6888 27.9326 23.8833 28.2141 22.8484 28.3492C21.835 28.4813 20.5228 28.4813 18.8426 28.4813L18.8421 28.4812Z" stroke="currentColor" stroke-width="3" mask="url(#path-1-inside-1_9427_26802)"/>
<mask id="path-2-inside-2_9427_26802" fill="white">
<path d="M7.29167 28.4812L18.7378 28.4812C20.4658 28.4812 21.8165 28.4812 22.8544 28.3447C23.9155 28.2054 24.738 27.9138 25.3402 27.2659C25.9423 26.6181 26.1349 25.818 26.1333 24.8183C26.1318 23.8415 25.9408 22.5947 25.6959 20.9987L24.2774 11.7353C24.0895 10.5086 23.9417 9.54477 23.7214 8.79494C23.495 8.0279 23.1793 7.43035 22.6141 6.97355C22.0504 6.51533 21.3712 6.30849 20.5241 6.20795C19.6971 6.11171 18.6529 6.11171 17.3237 6.11171L10.1744 6.11171C9.15792 6.11171 8.816 6.10022 8.52799 5.96519C8.23998 5.83161 8.02438 5.58309 7.41448 4.82466L4.64381 1.37866C4.45129 1.13877 4.27572 0.920433 4.11864 0.773931C3.97387 0.637472 3.68431 0.406206 3.29311 0.505319C2.90192 0.605871 2.7787 0.941993 2.72788 1.12729C2.67244 1.32839 2.64009 1.5999 2.60467 1.89724L0.305276 21.2029C0.120461 22.7585 -0.0243113 23.9766 0.003414 24.9305C0.0326766 25.9044 0.245213 26.6829 0.844318 27.3078C1.44495 27.9326 2.25045 28.2141 3.28542 28.3492C4.29882 28.4813 5.61144 28.4812 7.29167 28.4812Z"/>
</mask>
<path d="M7.29167 28.4812L18.7378 28.4812C20.4658 28.4812 21.8165 28.4812 22.8544 28.3447C23.9155 28.2054 24.738 27.9138 25.3402 27.2659C25.9423 26.6181 26.1349 25.818 26.1333 24.8183C26.1318 23.8415 25.9408 22.5947 25.6959 20.9987L24.2774 11.7353C24.0895 10.5086 23.9417 9.54477 23.7214 8.79494C23.495 8.0279 23.1793 7.43035 22.6141 6.97355C22.0504 6.51533 21.3712 6.30849 20.5241 6.20795C19.6971 6.11171 18.6529 6.11171 17.3237 6.11171L10.1744 6.11171C9.15792 6.11171 8.816 6.10022 8.52799 5.96519C8.23998 5.83161 8.02438 5.58309 7.41448 4.82466L4.64381 1.37866C4.45129 1.13877 4.27572 0.920433 4.11864 0.773931C3.97387 0.637472 3.68431 0.406206 3.29311 0.505319C2.90192 0.605871 2.7787 0.941993 2.72788 1.12729C2.67244 1.32839 2.64009 1.5999 2.60467 1.89724L0.305276 21.2029C0.120461 22.7585 -0.0243113 23.9766 0.003414 24.9305C0.0326766 25.9044 0.245213 26.6829 0.844318 27.3078C1.44495 27.9326 2.25045 28.2141 3.28542 28.3492C4.29882 28.4813 5.61144 28.4812 7.29167 28.4812Z" stroke="currentColor" stroke-width="3" mask="url(#path-2-inside-2_9427_26802)"/>
<path d="M10.2666 14.4813L16.0102 20.2249" stroke="currentColor" stroke-width="1.5" stroke-linecap="round" stroke-linejoin="round"/>
<path d="M16.0102 14.4813L10.2666 20.2249" stroke="currentColor" stroke-width="1.5" stroke-linecap="round" stroke-linejoin="round"/>
</svg>
