<svg width="16" height="12" viewBox="0 0 16 12" fill="none" xmlns="http://www.w3.org/2000/svg">
<path d="M9.77287 1.21296C9.74589 1.20128 9.71636 1.19646 9.68699 1.19894C9.65762 1.20141 9.62936 1.2111 9.60479 1.22712C9.58023 1.24313 9.56015 1.26496 9.54641 1.29059C9.53267 1.31622 9.52571 1.34483 9.52616 1.3738L9.52616 2.75778C9.52616 2.91696 9.46182 3.06961 9.3473 3.18216C9.23278 3.29472 9.07745 3.35795 8.9155 3.35795C8.10087 3.35795 6.45696 3.36395 4.88511 4.34462C3.68332 5.09363 2.45466 6.4572 1.71576 8.99711C2.96151 7.81718 4.38436 7.1774 5.63012 6.83771C6.39583 6.62986 7.18277 6.50666 7.97629 6.47041C8.30111 6.45639 8.62645 6.45959 8.95091 6.48001L8.96679 6.48001L8.9729 6.48121L8.9155 7.07898L8.97656 6.48121C9.1273 6.4961 9.26702 6.56552 9.36859 6.67599C9.47015 6.78646 9.52631 6.93009 9.52616 7.07898L9.52616 8.46296C9.52616 8.59259 9.66051 8.67422 9.77287 8.6238L14.6386 5.10323C14.6552 5.09119 14.6723 5.07997 14.6899 5.06962C14.7165 5.05394 14.7385 5.03177 14.7537 5.00526C14.769 4.97876 14.777 4.94883 14.777 4.91838C14.777 4.88793 14.769 4.858 14.7537 4.8315C14.7385 4.80499 14.7165 4.78282 14.6899 4.76714C14.6723 4.75679 14.6552 4.74558 14.6386 4.73353L9.77287 1.21296ZM8.30483 7.66234C8.22178 7.66234 8.13018 7.66594 8.03247 7.66954C7.50242 7.69355 6.76962 7.77277 5.95621 7.99483C4.33673 8.43655 2.41924 9.43763 1.14417 11.6918C1.07522 11.8135 0.965351 11.9079 0.833398 11.9587C0.701445 12.0095 0.55562 12.0136 0.420918 11.9703C0.286217 11.927 0.171025 11.839 0.0950832 11.7214C0.0191411 11.6039 -0.0128222 11.464 0.00467106 11.3257C0.571369 6.87252 2.3081 4.52947 4.23048 3.33154C5.75103 2.38328 7.31678 2.20083 8.30483 2.16602L8.30483 1.3738C8.30472 1.12661 8.3725 0.883981 8.50101 0.671503C8.62953 0.459025 8.81403 0.28458 9.03503 0.166577C9.25603 0.048573 9.50534 -0.00861421 9.75666 0.00104944C10.008 0.0107131 10.252 0.0868691 10.4629 0.221482L15.3409 3.75046C15.5426 3.87417 15.7089 4.0463 15.8242 4.25062C15.9395 4.45494 16 4.68474 16 4.91838C16 5.15202 15.9395 5.38182 15.8242 5.58614C15.7089 5.79046 15.5426 5.96258 15.3409 6.0863L10.4629 9.61528C10.252 9.74989 10.008 9.82605 9.75666 9.83571C9.50534 9.84537 9.25602 9.78819 9.03502 9.67018C8.81402 9.55218 8.62953 9.37773 8.50101 9.16526C8.3725 8.95278 8.30472 8.71014 8.30483 8.46296L8.30483 7.66234Z" fill="black"/>
</svg>
