<svg width="17" height="17" viewBox="0 0 17 17" fill="none" xmlns="http://www.w3.org/2000/svg">
<path d="M15.8775 13.5486H14.3241V11.9953C14.3241 11.9098 14.2542 11.8399 14.1688 11.8399H13.2368C13.1513 11.8399 13.0814 11.9098 13.0814 11.9953V13.5486H11.5281C11.4426 13.5486 11.3727 13.6185 11.3727 13.704V14.636C11.3727 14.7214 11.4426 14.7913 11.5281 14.7913H13.0814V16.3447C13.0814 16.4301 13.1513 16.5 13.2368 16.5H14.1688C14.2542 16.5 14.3241 16.4301 14.3241 16.3447V14.7913H15.8775C15.9629 14.7913 16.0328 14.7214 16.0328 14.636V13.704C16.0328 13.6185 15.9629 13.5486 15.8775 13.5486ZM5.80979 8.23616C5.79232 8.06723 5.78261 7.89636 5.78261 7.72355C5.78261 7.41482 5.81173 7.11386 5.8661 6.82066C5.87969 6.75076 5.8428 6.67892 5.77873 6.6498C5.51466 6.53135 5.27194 6.36825 5.06224 6.16243C4.81514 5.92284 4.6207 5.63437 4.49131 5.31543C4.36193 4.99649 4.30046 4.65408 4.31081 4.31006C4.32828 3.68677 4.57876 3.09456 5.01564 2.64797C5.49524 2.15672 6.13988 1.88877 6.8253 1.89653C7.4447 1.90236 8.04274 2.14119 8.49515 2.56447C8.64855 2.70816 8.78058 2.86738 8.89126 3.03825C8.93009 3.09844 9.00582 3.12368 9.07184 3.10038C9.41357 2.98194 9.77473 2.89845 10.1456 2.85961C10.2543 2.84796 10.3165 2.73146 10.2679 2.63438C9.63687 1.38587 8.34758 0.523756 6.85636 0.500456C4.70497 0.467447 2.91085 2.23244 2.91085 4.38384C2.91085 5.60322 3.47199 6.69057 4.35158 7.40317C3.73412 7.6886 3.16521 8.08276 2.67202 8.57595C1.60797 9.63806 1.00605 11.04 0.967212 12.537C0.966693 12.5577 0.970328 12.5783 0.977902 12.5976C0.985476 12.6169 0.996836 12.6345 1.01131 12.6494C1.02579 12.6642 1.04309 12.676 1.06219 12.684C1.0813 12.6921 1.10182 12.6962 1.12255 12.6962H2.21184C2.29533 12.6962 2.36523 12.6302 2.36717 12.5467C2.40406 11.4205 2.86036 10.3662 3.66228 9.56622C4.23314 8.99536 4.93215 8.59925 5.69523 8.40703C5.76902 8.38567 5.8195 8.31383 5.80979 8.23616ZM14.5571 7.72355C14.5571 5.59934 12.8504 3.87318 10.7339 3.84017C8.58253 3.80716 6.79035 5.57216 6.79035 7.72355C6.79035 8.94293 7.35344 10.0303 8.23108 10.7429C7.60723 11.0321 7.03931 11.4291 6.55346 11.9157C5.48941 12.9778 4.88749 14.3797 4.84865 15.8748C4.84814 15.8955 4.85177 15.9161 4.85935 15.9354C4.86692 15.9547 4.87828 15.9723 4.89275 15.9871C4.90723 16.002 4.92453 16.0138 4.94363 16.0218C4.96274 16.0299 4.98326 16.034 5.00399 16.034H6.09134C6.17483 16.034 6.24473 15.968 6.24667 15.8845C6.28356 14.7583 6.73986 13.704 7.54178 12.904C8.37865 12.0671 9.4893 11.6069 10.6737 11.6069C12.8174 11.6069 14.5571 9.86912 14.5571 7.72355ZM12.431 9.48078C11.9611 9.95067 11.3378 10.2089 10.6737 10.2089C10.0097 10.2089 9.38639 9.95067 8.9165 9.48078C8.68202 9.24753 8.49675 8.96957 8.37167 8.66339C8.2466 8.3572 8.18426 8.02903 8.18837 7.69831C8.19419 7.06143 8.44855 6.44592 8.8932 5.98962C9.35921 5.51196 9.98249 5.24595 10.6485 5.23818C11.3067 5.23236 11.9455 5.48866 12.4154 5.94884C12.897 6.42068 13.161 7.05173 13.161 7.72355C13.1591 8.38761 12.9009 9.01089 12.431 9.48078Z" fill="black"/>
</svg>
