<svg width="20" height="17" viewBox="0 0 20 17" fill="none" xmlns="http://www.w3.org/2000/svg">
<path fill="currentColor" d="M16.3636 17H3.63636C3.39526 17 3.16403 16.9088 2.99354 16.7466C2.82305 16.5843 2.72727 16.3643 2.72727 16.1348V8.34788H0L9.38818 0.225265C9.55556 0.0803222 9.77371 0 10 0C10.2263 0 10.4444 0.0803222 10.6118 0.225265L20 8.34788H17.2727V16.1348C17.2727 16.3643 17.177 16.5843 17.0065 16.7466C16.836 16.9088 16.6047 17 16.3636 17ZM4.54545 15.2696H15.4545V6.75329L10 2.03442L4.54545 6.75329V15.2696ZM6.36364 11.8087H13.6364V13.5392H6.36364V11.8087Z"/>
</svg>
