<svg width="32" height="32" viewBox="0 0 32 32" fill="none" xmlns="http://www.w3.org/2000/svg">
<path fill-rule="evenodd" clip-rule="evenodd" d="M16 29.3334C8.63616 29.3334 2.66663 23.3638 2.66663 16C2.66663 8.63622 8.63616 2.66669 16 2.66669C23.3638 2.66669 29.3333 8.63622 29.3333 16C29.3333 23.3638 23.3638 29.3334 16 29.3334ZM16 27.7334C22.4801 27.7334 27.7333 22.4802 27.7333 16C27.7333 9.51988 22.4801 4.26669 16 4.26669C9.51982 4.26669 4.26663 9.51988 4.26663 16C4.26663 22.4802 9.51982 27.7334 16 27.7334ZM19.0666 16C19.0666 18.4388 18.1015 20.7207 16.4111 22.4111L17.5424 23.5425C19.4727 21.6122 20.6666 18.9455 20.6666 16C20.6666 13.0545 19.4727 10.3878 17.5424 8.45755L16.4111 9.58892C18.1015 11.2793 19.0666 13.5612 19.0666 16ZM13.7712 19.7713C14.766 18.7765 15.3333 17.4352 15.3333 16C15.3333 14.5649 14.766 13.2236 13.7712 12.2288L14.9026 11.0974C16.1573 12.3521 16.9333 14.0854 16.9333 16C16.9333 17.9146 16.1573 19.6479 14.9026 20.9026L13.7712 19.7713ZM13.2 16C13.2 16.8837 12.8418 17.6837 12.2627 18.2628L9.99996 16L12.2627 13.7373C12.8418 14.3164 13.2 15.1164 13.2 16Z" fill="black" fill-opacity="0.9"/>
</svg>
