<svg width="17" height="16" viewBox="0 0 17 16" fill="none" xmlns="http://www.w3.org/2000/svg">
<path fill-rule="evenodd" clip-rule="evenodd" d="M1.61771 1.22415L2.36032 0.5L5.37473 3.4395L8.13283 0.749959C8.4746 0.41668 9.02872 0.41668 9.3705 0.749959C9.53462 0.910006 9.62683 1.12707 9.62683 1.35341V7.58591L17 14.7759L16.2574 15.5L1.61771 1.22415ZM8.75167 6.73251L5.99362 4.043L8.75167 1.3535V6.73251ZM4.20344 3.98687H0.875166C0.391825 3.98687 0 4.36896 0 4.84028V9.10736C0 9.57868 0.391825 9.96077 0.875166 9.96077H4.81341L8.13283 13.1977C8.29695 13.3577 8.51955 13.4476 8.75166 13.4476C9.235 13.4476 9.62683 13.0656 9.62683 12.5942V9.27546L8.75167 8.42206V12.5943L5.17593 9.10744H0.875183V4.84036H5.07869L4.20344 3.98687ZM13.3972 11.0753C14.5067 9.99331 15.1402 8.53274 15.1402 6.97177C15.1402 5.4108 14.5067 3.95023 13.3972 2.86827L14.1398 2.14413C15.4067 3.37963 16.1904 5.08646 16.1904 6.97177C16.1904 8.85708 15.4067 10.5639 14.1398 11.7994L13.3972 11.0753ZM11.6645 9.38552C12.3174 8.74881 12.6898 7.8903 12.6898 6.9717C12.6898 6.05311 12.3174 5.1946 11.6645 4.55788L12.4071 3.83374C13.2306 4.63681 13.74 5.74625 13.74 6.9717C13.74 8.19715 13.2306 9.30659 12.4071 10.1097L11.6645 9.38552Z" fill="black" fill-opacity="0.9"/>
</svg>
