<svg width="16" height="16" viewBox="0 0 16 16" fill="none" xmlns="http://www.w3.org/2000/svg">
<rect opacity="0.3" width="16" height="16" rx="8" fill="black"/>
<path d="M12 7.66669H11.3334C11.3334 8.26669 11.1667 8.83335 10.8667 9.33335L11.3667 9.83335C11.7667 9.16669 11.9667 8.43335 12 7.66669Z" fill="white"/>
<path d="M8.00005 3.33334C8.93338 3.33334 9.66672 4.06667 9.66672 5V7.66667C9.66672 7.8 9.63338 7.93334 9.60005 8.06667L10.1334 8.6C10.2667 8.3 10.3334 8 10.3334 7.66667V5C10.3334 3.7 9.26672 2.66667 7.96672 2.7C7.00005 2.7 6.10005 3.33334 5.80005 4.26667L6.33338 4.76667C6.50005 3.96667 7.20005 3.4 8.00005 3.33334Z" fill="white"/>
<path d="M10.4 10.8667L12.7 13.1667L13.1667 12.7L3.33337 2.8667L2.8667 3.33337L5.6667 6.13337V7.6667C5.6667 8.9667 6.70003 10 8.00003 10C8.43337 10 8.83337 9.90003 9.20003 9.6667L9.93337 10.4C9.3667 10.8 8.70003 11 8.00003 11C6.20003 11.0667 4.73337 9.63337 4.6667 7.8667C4.6667 7.80003 4.6667 7.73337 4.6667 7.6667H4.00003C4.03337 9.73337 5.60003 11.4667 7.6667 11.6667V12.6667H6.6667C6.4667 12.6667 6.33337 12.8 6.33337 13C6.33337 13.2 6.4667 13.3334 6.6667 13.3334H9.33337C9.53337 13.3334 9.6667 13.2 9.6667 13C9.6667 12.8 9.53337 12.6667 9.33337 12.6667H8.33337V11.6667C9.0667 11.6 9.80003 11.3334 10.4 10.8667ZM6.60003 8.5667C6.43337 8.30003 6.33337 8.00003 6.33337 7.6667V6.80003L8.70003 9.1667C7.9667 9.50003 7.0667 9.2667 6.60003 8.5667Z" fill="white"/>
</svg>
