<svg width="80" height="80" viewBox="0 0 80 80" fill="none" xmlns="http://www.w3.org/2000/svg">
<path d="M56.6665 66.6667H73.3332V60C73.3332 54.477 68.8562 50 63.3332 50C60.1478 50 57.3102 51.4894 55.4792 53.8097M56.6665 66.6667H23.3332M56.6665 66.6667V60C56.6665 57.8127 56.2452 55.7234 55.4792 53.8097M55.4792 53.8097C53.0215 47.67 47.0172 43.3334 39.9998 43.3334C32.9826 43.3334 26.9782 47.67 24.5207 53.8097M23.3332 66.6667H6.6665V60C6.6665 54.477 11.1437 50 16.6665 50C19.8519 50 22.6894 51.4894 24.5207 53.8097M23.3332 66.6667V60C23.3332 57.8127 23.7546 55.7234 24.5207 53.8097M49.9998 23.3334C49.9998 28.8562 45.5228 33.3334 39.9998 33.3334C34.4768 33.3334 29.9998 28.8562 29.9998 23.3334C29.9998 17.8105 34.4768 13.3334 39.9998 13.3334C45.5228 13.3334 49.9998 17.8105 49.9998 23.3334ZM69.9998 33.3334C69.9998 37.0154 67.0152 40 63.3332 40C59.6512 40 56.6665 37.0154 56.6665 33.3334C56.6665 29.6515 59.6512 26.6667 63.3332 26.6667C67.0152 26.6667 69.9998 29.6515 69.9998 33.3334ZM23.3332 33.3334C23.3332 37.0154 20.3484 40 16.6665 40C12.9846 40 9.99984 37.0154 9.99984 33.3334C9.99984 29.6515 12.9846 26.6667 16.6665 26.6667C20.3484 26.6667 23.3332 29.6515 23.3332 33.3334Z" stroke="#333333" stroke-opacity="0.5" stroke-width="2.5" stroke-linecap="round" stroke-linejoin="round"/>
</svg>
