<svg width="32" height="32" viewBox="0 0 32 32" xmlns="http://www.w3.org/2000/svg">
<path fill-rule="evenodd" clip-rule="evenodd" d="M2.66663 16C2.66663 23.3638 8.63616 29.3334 16 29.3334C23.3638 29.3334 29.3333 23.3638 29.3333 16C29.3333 8.63622 23.3638 2.66669 16 2.66669C8.63616 2.66669 2.66663 8.63622 2.66663 16ZM27.7333 16C27.7333 22.4802 22.4801 27.7334 16 27.7334C9.51982 27.7334 4.26663 22.4802 4.26663 16C4.26663 9.51988 9.51982 4.26669 16 4.26669C22.4801 4.26669 27.7333 9.51988 27.7333 16ZM22.6666 15.2V16.8H16.8V22.6667H15.2V16.8H9.33329V15.2H15.2V9.33335H16.8V15.2H22.6666Z" fill-opacity="0.9"/>
</svg>
