<svg width="20" height="21" viewBox="0 0 20 21" xmlns="http://www.w3.org/2000/svg">
<mask id="mask0_4769_3900" style="mask-type:alpha" maskUnits="userSpaceOnUse" x="0" y="0" width="20" height="21">
<rect y="0.5" width="20" height="20" />
</mask>
<g mask="url(#mask0_4769_3900)">
<path opacity="0.5" d="M10 16.3289C10.2684 16.3289 10.4936 16.2342 10.6755 16.0447C10.8567 15.8553 10.9474 15.6263 10.9474 15.3579C10.9474 15.0895 10.8567 14.8605 10.6755 14.6711C10.4936 14.4816 10.2684 14.3868 10 14.3868C9.71579 14.3868 9.48305 14.4816 9.30179 14.6711C9.11989 14.8605 9.02895 15.0895 9.02895 15.3579C9.02895 15.6263 9.11989 15.8553 9.30179 16.0447C9.48305 16.2342 9.71579 16.3289 10 16.3289ZM9.31316 12.9184H10.6632C10.6632 12.4605 10.7263 12.0933 10.8526 11.8166C10.9789 11.5406 11.2789 11.1658 11.7526 10.6921C12.1789 10.2816 12.5026 9.89853 12.7237 9.54295C12.9447 9.188 13.0553 8.77368 13.0553 8.3C13.0553 7.47895 12.7632 6.83947 12.1789 6.38158C11.5947 5.92368 10.9 5.69474 10.0947 5.69474C9.30526 5.69474 8.65 5.90789 8.12895 6.33421C7.60789 6.76053 7.23684 7.25789 7.01579 7.82632L8.24737 8.3C8.35789 8 8.55147 7.7 8.8281 7.4C9.1041 7.1 9.51842 6.95 10.0711 6.95C10.6395 6.95 11.0579 7.10379 11.3263 7.41137C11.5947 7.71958 11.7289 8.05526 11.7289 8.41842C11.7289 8.73421 11.6342 9.02632 11.4447 9.29474C11.2553 9.56316 11.0184 9.82368 10.7342 10.0763C10.1184 10.6289 9.72779 11.0752 9.56232 11.4149C9.39621 11.7541 9.31316 12.2553 9.31316 12.9184ZM10 20C8.75263 20 7.58042 19.7632 6.48337 19.2895C5.38568 18.8158 4.43421 18.1763 3.62895 17.3711C2.82368 16.5658 2.18421 15.6143 1.71053 14.5166C1.23684 13.4196 1 12.2474 1 11C1 9.75263 1.23684 8.5801 1.71053 7.48242C2.18421 6.38537 2.82368 5.43421 3.62895 4.62895C4.43421 3.82368 5.38568 3.18421 6.48337 2.71053C7.58042 2.23684 8.75263 2 10 2C11.2474 2 12.4199 2.23684 13.5176 2.71053C14.6146 3.18421 15.5658 3.82368 16.3711 4.62895C17.1763 5.43421 17.8158 6.38537 18.2895 7.48242C18.7632 8.5801 19 9.75263 19 11C19 12.2474 18.7632 13.4196 18.2895 14.5166C17.8158 15.6143 17.1763 16.5658 16.3711 17.3711C15.5658 18.1763 14.6146 18.8158 13.5176 19.2895C12.4199 19.7632 11.2474 20 10 20ZM10 18.5789C12.1158 18.5789 13.9079 17.8447 15.3763 16.3763C16.8447 14.9079 17.5789 13.1158 17.5789 11C17.5789 8.88421 16.8447 7.0921 15.3763 5.62368C13.9079 4.15526 12.1158 3.42105 10 3.42105C7.88421 3.42105 6.09211 4.15526 4.62368 5.62368C3.15526 7.0921 2.42105 8.88421 2.42105 11C2.42105 13.1158 3.15526 14.9079 4.62368 16.3763C6.09211 17.8447 7.88421 18.5789 10 18.5789Z"/>
</g>
</svg>
