<svg width="16" height="13" viewBox="0 0 16 13" fill="none" xmlns="http://www.w3.org/2000/svg">
<path d="M6.22713 1.71296C6.25411 1.70128 6.28364 1.69646 6.31301 1.69894C6.34238 1.70141 6.37065 1.7111 6.39521 1.72712C6.41977 1.74313 6.43985 1.76496 6.45359 1.79059C6.46733 1.81622 6.47429 1.84483 6.47384 1.8738V3.25778C6.47384 3.41696 6.53818 3.56961 6.6527 3.68216C6.76722 3.79472 6.92254 3.85795 7.0845 3.85795C7.89913 3.85795 9.54304 3.86395 11.1149 4.84462C12.3167 5.59363 13.5453 6.9572 14.2842 9.49711C13.0385 8.31718 11.6156 7.6774 10.3699 7.33771C9.60417 7.12986 8.81723 7.00666 8.02371 6.97041C7.69889 6.95639 7.37355 6.95959 7.04909 6.98001H7.03321L7.0271 6.98121L7.0845 7.57898L7.02344 6.98121C6.8727 6.9961 6.73298 7.06552 6.63141 7.17599C6.52985 7.28646 6.47369 7.43009 6.47384 7.57898V8.96296C6.47384 9.09259 6.33949 9.17422 6.22713 9.1238L1.36135 5.60323C1.34483 5.59119 1.32771 5.57997 1.31005 5.56962C1.2835 5.55394 1.26152 5.53177 1.24627 5.50526C1.23101 5.47876 1.22299 5.44883 1.22299 5.41838C1.22299 5.38793 1.23101 5.358 1.24627 5.33149C1.26152 5.30499 1.2835 5.28282 1.31005 5.26714C1.32772 5.25679 1.34484 5.24557 1.36135 5.23353L6.22713 1.71296ZM7.69517 8.16234C7.77822 8.16234 7.86982 8.16594 7.96753 8.16954C8.49758 8.19355 9.23038 8.27277 10.0438 8.49483C11.6633 8.93655 13.5808 9.93763 14.8558 12.1918C14.9248 12.3135 15.0346 12.4079 15.1666 12.4587C15.2986 12.5095 15.4444 12.5136 15.5791 12.4703C15.7138 12.427 15.829 12.339 15.9049 12.2214C15.9809 12.1039 16.0128 11.964 15.9953 11.8257C15.4286 7.37252 13.6919 5.02947 11.7695 3.83154C10.249 2.88328 8.68323 2.70083 7.69517 2.66602V1.8738C7.69528 1.62661 7.6275 1.38398 7.49899 1.1715C7.37047 0.959025 7.18598 0.784581 6.96497 0.666577C6.74397 0.548574 6.49466 0.491386 6.24334 0.50105C5.99203 0.510714 5.74802 0.58687 5.53708 0.721482L0.659085 4.25046C0.457419 4.37417 0.291105 4.5463 0.175802 4.75062C0.0604993 4.95494 0 5.18474 0 5.41838C0 5.65202 0.0604993 5.88182 0.175802 6.08614C0.291105 6.29046 0.457419 6.46258 0.659085 6.5863L5.53708 10.1153C5.74802 10.2499 5.99203 10.326 6.24334 10.3357C6.49466 10.3454 6.74397 10.2882 6.96497 10.1702C7.18598 10.0522 7.37047 9.87773 7.49899 9.66526C7.6275 9.45278 7.69528 9.21014 7.69517 8.96296V8.16234Z" fill="black"/>
</svg>
