<svg width="110" height="116" viewBox="0 0 110 116" fill="none" xmlns="http://www.w3.org/2000/svg">
<g filter="url(#filter0_d_8611_18104)">
<path d="M62.5757 58.8673C62.5757 58.8673 63.727 63.214 59.0627 65.1744C59.0627 65.1744 57.1591 66.2048 56.1831 66.2425C55.207 66.2802 52.1935 66.0255 52.1935 66.0255C52.1935 66.0255 49.3297 65.4937 46.7153 67.1429C44.1008 68.7921 43.3591 71.6332 43.3591 71.6332C43.3591 71.6332 42.4341 76.1754 45.3287 78.3645C48.2233 80.5536 50.6484 81.1527 50.6484 81.1527C50.6484 81.1527 55.4801 82.427 62.1925 78.5761C68.9049 74.7253 69.9963 66.2389 69.9963 66.2389C70.0787 65.6567 70.1123 65.0684 70.0967 64.4803C70.0656 62.7494 69.7861 61.0324 69.2669 59.3838C68.1543 55.7966 65.6306 51.3064 60.0519 47.2134C48.2859 38.58 30.6637 40.2238 30.6637 40.2238C30.6637 40.2238 22.6212 41.577 20.1714 43.2585L22.6238 43.9984C22.6238 43.9984 37.6553 37.1442 52.4525 47.3165C52.4525 47.3165 58.9975 51.7046 62.5757 58.8673Z" fill="#3671EE"/>
<path d="M22.2185 104.266C22.2185 104.266 17.7736 100.759 14.6235 95.1933C14.6235 95.1933 11.2154 88.0835 11.9562 77.5024C11.9562 77.5024 12.2918 71.3549 6.28066 71.2697C-0.664259 71.2168 0.0184286 77.0907 0.0184286 77.0907C0.0184286 77.0907 0.229841 83.9897 1.48511 86.8209C2.74037 89.652 4.44929 94.9431 9.59984 98.011C13.3683 100.196 22.2185 104.266 22.2185 104.266Z" fill="#3671EE"/>
<path d="M36.8167 107.644C36.8167 107.644 31.3746 107.59 25.6171 102.784C25.6171 102.784 18.7558 96.3071 18.1507 88.3088C17.5455 80.3104 18.4942 79.0719 18.4942 79.0719C18.4942 79.0719 20.5722 73.9602 24.6675 74.3925C28.7627 74.8247 30.0471 75.604 30.0471 75.604C30.0471 75.604 32.9831 76.5376 33.1566 80.487C33.3301 84.4364 33.1187 91.0457 33.9115 93.9387C34.7043 96.8317 35.6486 99.5759 39.5871 102.622C43.5256 105.669 49.2196 102.727 49.2196 102.727C49.2196 102.727 53.536 101.45 59.4177 94.6041C59.4177 94.6041 63.0452 90.4009 65.2315 84.3261C67.4179 78.2513 73.2908 73.6195 73.2908 73.6195C73.2908 73.6195 76.7263 70.174 85.2709 69.3149C93.8155 68.4558 98.9176 75.248 98.9176 75.248C98.9176 75.248 103.694 79.0563 101.355 88.4917C101.355 88.4917 97.1559 99.2585 91.9533 91.2717C91.9533 91.2717 88.9988 81.8869 82.5815 83.0213C76.1643 84.1557 73.482 89.7615 73.482 89.7615C73.482 89.7615 67.3157 103.089 52.8418 106.663C52.8418 106.663 45.5243 108.833 36.8167 107.644Z" fill="#3671EE"/>
<path d="M2.80737 70.5228C2.80737 70.5228 -2.44448 61.962 2.46735 51.7664C7.37917 41.5708 20.0129 43.2469 20.0129 43.2469C20.0129 43.2469 24.8084 43.4262 26.2037 48.5532C27.5991 53.6801 21.7306 55.4244 21.7306 55.4244C21.7306 55.4244 20.0226 56.3149 13.8546 56.392C7.6866 56.4692 4.29959 64.0614 4.29959 64.0614C4.29959 64.0614 2.90515 67.4396 2.80737 70.5228Z" fill="#3671EE"/>
<path d="M18.3771 43.1454C18.3771 43.1454 23.4061 39.3063 30.0867 39.0498C30.0867 39.0498 40.0487 39.9798 41.9893 35.6752C41.9893 35.6752 36.0547 31.1473 37.0211 24.5926C37.9874 18.038 43.7246 13.2652 43.7246 13.2652L44.165 12.7478C44.165 12.7478 47.1116 -0.273616 48.3642 0.00438901C49.6168 0.282394 54.3419 7.91947 54.3419 7.91947L59.8915 9.43953C59.8915 9.43953 63.5031 2.2383 65.848 2.03652C68.1929 1.83474 73.6342 14.1271 73.6342 14.1271C73.6342 14.1271 76.5 24.5455 74.3283 30.7114C74.3283 30.7114 71.5473 39.1287 69.5777 43.5355C67.608 47.9424 68.7444 57.8896 68.7444 57.8896L61.4665 53.2639L55.8121 46.8635L48.9571 43.7382L41.7373 41.3348L33.8693 41.3079L29.4701 41.4657L26.6583 42.1527L24.5979 42.8307C24.5979 42.8307 22.4733 43.9176 22.4618 43.9122C22.4504 43.9068 22.0108 44.1812 21.9148 44.2189C21.8188 44.2565 18.3771 43.1454 18.3771 43.1454Z" fill="#3671EE"/>
</g>
<defs>
<filter id="filter0_d_8611_18104" x="0" y="0" width="110" height="116" filterUnits="userSpaceOnUse" color-interpolation-filters="sRGB">
<feFlood flood-opacity="0" result="BackgroundImageFix"/>
<feColorMatrix in="SourceAlpha" type="matrix" values="0 0 0 0 0 0 0 0 0 0 0 0 0 0 0 0 0 0 127 0" result="hardAlpha"/>
<feOffset dx="4" dy="4"/>
<feGaussianBlur stdDeviation="2"/>
<feComposite in2="hardAlpha" operator="out"/>
<feColorMatrix type="matrix" values="0 0 0 0 0.211765 0 0 0 0 0.443137 0 0 0 0 0.933333 0 0 0 0.16 0"/>
<feBlend mode="normal" in2="BackgroundImageFix" result="effect1_dropShadow_8611_18104"/>
<feBlend mode="normal" in="SourceGraphic" in2="effect1_dropShadow_8611_18104" result="shape"/>
</filter>
</defs>
</svg>
