<svg width="132" height="128" viewBox="0 0 132 128" fill="none" xmlns="http://www.w3.org/2000/svg">
<path d="M96.4779 103.35C96.4779 103.35 86.9723 115.424 64.0001 119.127" stroke="#3671EE" stroke-width="2" stroke-linecap="round"/>
<path d="M5.71826 76C5.71826 76 5.48395 88.5147 12.389 97.0474" stroke="#3671EE" stroke-width="2" stroke-linecap="round"/>
<path d="M97.021 45.9914C97.021 45.9914 104.907 31.119 101.971 17" stroke="#3671EE" stroke-width="2" stroke-linecap="round"/>
<path d="M63.8716 51.6747C63.8716 51.6747 56.1588 47.0774 48.0003 48.5039" stroke="#3671EE" stroke-width="2" stroke-linecap="round"/>
<path d="M79.6068 58.8673C79.6068 58.8673 80.7771 63.214 76.036 65.1744C76.036 65.1744 74.101 66.2048 73.1089 66.2425C72.1168 66.2802 69.0536 66.0255 69.0536 66.0255C69.0536 66.0255 66.1427 65.4937 63.4852 67.1429C60.8276 68.7921 60.0737 71.6332 60.0737 71.6332C60.0737 71.6332 59.1335 76.1754 62.0758 78.3645C65.0181 80.5536 67.4831 81.1527 67.4831 81.1527C67.4831 81.1527 72.3944 82.427 79.2173 78.5761C86.0402 74.7253 87.1496 66.2389 87.1496 66.2389C87.2334 65.6567 87.2675 65.0684 87.2517 64.4803C87.2201 62.7494 86.936 61.0324 86.4082 59.3838C85.2774 55.7966 82.712 51.3064 77.0415 47.2134C65.0817 38.58 47.1692 40.2238 47.1692 40.2238C47.1692 40.2238 38.9942 41.577 36.5041 43.2585L38.9969 43.9984C38.9969 43.9984 54.276 37.1442 69.3169 47.3165C69.3169 47.3165 75.9697 51.7046 79.6068 58.8673Z" fill="#3671EE"/>
<path d="M38.585 104.266C38.585 104.266 34.0668 100.759 30.8649 95.1933C30.8649 95.1933 27.4006 88.0835 28.1536 77.5024C28.1536 77.5024 28.4948 71.3549 22.3846 71.2697C15.3253 71.2168 16.0192 77.0907 16.0192 77.0907C16.0192 77.0907 16.2341 83.9897 17.5101 86.8209C18.786 89.652 20.5231 94.9431 25.7584 98.011C29.5889 100.196 38.585 104.266 38.585 104.266Z" fill="#3671EE"/>
<path d="M53.4236 107.644C53.4236 107.644 47.8918 107.59 42.0395 102.784C42.0395 102.784 35.0652 96.3072 34.4501 88.3088C33.835 80.3104 34.7993 79.0719 34.7993 79.0719C34.7993 79.0719 36.9115 73.9602 41.0742 74.3925C45.2369 74.8247 46.5424 75.604 46.5424 75.604C46.5424 75.604 49.5268 76.5376 49.7032 80.487C49.8796 84.4364 49.6647 91.0457 50.4706 93.9387C51.2764 96.8318 52.2363 99.5759 56.2396 102.622C60.2429 105.669 66.0308 102.727 66.0308 102.727C66.0308 102.727 70.4182 101.45 76.3968 94.6041C76.3968 94.6041 80.0841 90.4009 82.3064 84.3261C84.5288 78.2513 90.4984 73.6195 90.4984 73.6195C90.4984 73.6195 93.9905 70.174 102.676 69.3149C111.361 68.4558 116.547 75.248 116.547 75.248C116.547 75.248 121.403 79.0563 119.025 88.4917C119.025 88.4917 114.757 99.2585 109.468 91.2717C109.468 91.2717 106.465 81.8869 99.9422 83.0213C93.4192 84.1557 90.6927 89.7615 90.6927 89.7615C90.6927 89.7615 84.4249 103.089 69.7127 106.663C69.7127 106.663 62.2746 108.833 53.4236 107.644Z" fill="#3671EE"/>
<path d="M18.8541 70.5228C18.8541 70.5228 13.5157 61.962 18.5085 51.7664C23.5012 41.5708 36.343 43.2469 36.343 43.2469C36.343 43.2469 41.2175 43.4262 42.6358 48.5532C44.0541 53.6801 38.089 55.4244 38.089 55.4244C38.089 55.4244 36.3528 56.3149 30.0833 56.392C23.8137 56.4692 20.3709 64.0614 20.3709 64.0614C20.3709 64.0614 18.9535 67.4396 18.8541 70.5228Z" fill="#3671EE"/>
<path d="M34.6803 43.1454C34.6803 43.1454 39.7921 39.3063 46.5828 39.0498C46.5828 39.0498 56.7088 39.9798 58.6813 35.6752C58.6813 35.6752 52.6491 31.1473 53.6313 24.5926C54.6136 18.038 60.4453 13.2652 60.4453 13.2652L60.893 12.7478C60.893 12.7478 63.888 -0.273616 65.1613 0.00438901C66.4345 0.282394 71.2374 7.91947 71.2374 7.91947L76.8784 9.43953C76.8784 9.43953 80.5495 2.2383 82.933 2.03652C85.3166 1.83474 90.8474 14.1271 90.8474 14.1271C90.8474 14.1271 93.7605 24.5455 91.553 30.7114C91.553 30.7114 88.7262 39.1287 86.7241 43.5355C84.722 47.9424 85.8771 57.8896 85.8771 57.8896L78.4794 53.2639L72.7318 46.8635L65.7639 43.7382L58.4252 41.3348L50.4276 41.3079L45.956 41.4657L43.0979 42.1527L41.0036 42.8307C41.0036 42.8307 38.8439 43.9176 38.8323 43.9122C38.8206 43.9068 38.3738 44.1812 38.2762 44.2189C38.1786 44.2565 34.6803 43.1454 34.6803 43.1454Z" fill="#3671EE"/>
<path d="M34.6053 45.1441C34.6053 45.1441 25.6397 44.0969 20.0169 53.847C19.7405 55.459 27.7183 46.0131 34.4463 47.9553C41.1744 49.8974 37.0107 45.0702 34.6053 45.1441Z" fill="white"/>
<path d="M37.6026 80.3566C37.6026 80.3566 34.1537 90.3544 42.8197 98.9412C44.4243 99.6154 36.6946 88.409 40.4859 81.1639C44.2772 73.9187 38.1586 77.5953 37.6026 80.3566Z" fill="white"/>
<path d="M18.2956 76.5986C18.2956 76.5986 15.8528 85.2884 24.5984 92.3732C26.147 92.8994 18.0718 83.5367 21.0469 77.1973C24.0219 70.8579 18.6005 74.2115 18.2956 76.5986Z" fill="white"/>
<path d="M116.608 88.2244C116.608 88.2244 119.116 80.5747 110.594 73.6801C109.076 73.113 116.911 82.011 113.908 87.5185C110.905 93.026 116.28 90.3482 116.608 88.2244Z" fill="white"/>
<path d="M46.9654 17.1375C45.5442 19.2515 43.9734 22.6402 44.5544 26.7937" stroke="#3671EE" stroke-width="2" stroke-linecap="round"/>
<path d="M124.855 92.9161C128.197 89.1055 130.954 82.7351 125.116 74" stroke="#3671EE" stroke-width="2" stroke-linecap="round"/>
<path d="M61.6585 98.127C64.0797 97.3355 67.4034 95.6313 69.5016 92" stroke="#3671EE" stroke-width="2" stroke-linecap="round"/>
<path d="M63.4366 73.4628C63.4366 73.4628 61.6777 71.2521 65.2016 69.0992C68.7254 66.9463 66.851 73.7678 63.4366 73.4628Z" fill="white"/>
<path d="M65.8425 2.24314C65.8425 2.24314 67.9003 4.01269 66.729 5.74215C65.5574 7.47163 64.0781 2.10906 65.8425 2.24314Z" fill="white"/>
<path d="M86.029 9.16798C86.029 9.16798 83.8724 7.20247 83.4109 4.77656C82.9496 2.35057 87.0245 9.06169 86.029 9.16798Z" fill="white"/>
<path d="M89.1248 88.6313C89.1248 88.6313 90.3594 85.4395 83.6559 93.7088C76.9522 101.978 84.9083 96.6356 89.1248 88.6313Z" fill="white"/>
<path d="M61.557 38.8067C61.557 38.8067 70.9327 39.0261 74.8938 45.2896C78.8548 51.5531 68.3529 40.9857 64.4184 41.1971C60.484 41.4085 58.9189 38.5085 61.557 38.8067Z" fill="white"/>
</svg>
