<svg width="28" height="28" viewBox="0 0 28 28" fill="none" xmlns="http://www.w3.org/2000/svg">
<g clip-path="url(#clip0_6416_5830)">
<path d="M25.2564 0H2.74361C1.22836 0 0 1.22836 0 2.74361V25.2564C0 26.7716 1.22836 28 2.74361 28H25.2564C26.7716 28 28 26.7716 28 25.2564V2.74361C28 1.22836 26.7716 0 25.2564 0Z" fill="#3671EE"/>
<path d="M17.3288 14.9887C17.3288 14.9887 17.5679 15.8753 16.5994 16.2751C16.5994 16.2751 16.2041 16.4853 16.0014 16.493C15.7988 16.5006 15.1731 16.4487 15.1731 16.4487C15.1731 16.4487 14.5784 16.3402 14.0356 16.6766C13.4927 17.013 13.3387 17.5924 13.3387 17.5924C13.3387 17.5924 13.1466 18.5189 13.7477 18.9653C14.3487 19.4118 14.8522 19.534 14.8522 19.534C14.8522 19.534 15.8555 19.7939 17.2492 19.0085C18.643 18.2231 18.8696 16.4922 18.8696 16.4922C18.8867 16.3735 18.8937 16.2535 18.8905 16.1335C18.884 15.7805 18.826 15.4303 18.7182 15.0941C18.4872 14.3624 17.9631 13.4466 16.8048 12.6118C14.3617 10.851 10.7026 11.1862 10.7026 11.1862C10.7026 11.1862 9.03268 11.4623 8.52401 11.8052L9.03323 11.9561C9.03323 11.9561 12.1544 10.5581 15.2268 12.6329C15.2268 12.6329 16.5858 13.5278 17.3288 14.9887Z" fill="white"/>
<path d="M8.94908 24.2481C8.94908 24.2481 8.02613 23.5328 7.37206 22.3977C7.37206 22.3977 6.66439 20.9476 6.81821 18.7895C6.81821 18.7895 6.8879 17.5357 5.63974 17.5183C4.19771 17.5075 4.33946 18.7055 4.33946 18.7055C4.33946 18.7055 4.38336 20.1126 4.644 20.6901C4.90464 21.2675 5.25948 22.3467 6.32894 22.9724C7.11141 23.4179 8.94908 24.2481 8.94908 24.2481Z" fill="white"/>
<path d="M11.9802 24.9372C11.9802 24.9372 10.8502 24.9262 9.65475 23.9458C9.65475 23.9458 8.23008 22.6249 8.10442 20.9935C7.97877 19.3622 8.17576 19.1096 8.17576 19.1096C8.17576 19.1096 8.60723 18.067 9.45757 18.1552C10.3079 18.2434 10.5746 18.4023 10.5746 18.4023C10.5746 18.4023 11.1842 18.5927 11.2203 19.3982C11.2563 20.2037 11.2124 21.5518 11.377 22.1418C11.5416 22.7319 11.7377 23.2916 12.5555 23.9129C13.3733 24.5342 14.5556 23.9343 14.5556 23.9343C14.5556 23.9343 15.4518 23.6738 16.6731 22.2775C16.6731 22.2775 17.4263 21.4203 17.8803 20.1813C18.3342 18.9423 19.5537 17.9975 19.5537 17.9975C19.5537 17.9975 20.267 17.2948 22.0412 17.1196C23.8154 16.9444 24.8748 18.3297 24.8748 18.3297C24.8748 18.3297 25.7956 19.0765 25.3809 21.0308C25.3809 21.0308 24.509 23.2268 23.4288 21.5979C23.4288 21.5979 22.8153 19.6837 21.4828 19.9151C20.1503 20.1465 19.5934 21.2898 19.5934 21.2898C19.5934 21.2898 18.313 24.008 15.3077 24.7371C15.3077 24.7371 13.7883 25.1795 11.9802 24.9372Z" fill="white"/>
<path d="M4.91855 17.366C4.91855 17.366 3.82806 15.6199 4.84795 13.5404C5.86784 11.461 8.49109 11.8028 8.49109 11.8028C8.49109 11.8028 9.48684 11.8394 9.77656 12.8851C10.0663 13.9308 8.84776 14.2865 8.84776 14.2865C8.84776 14.2865 8.4931 14.4682 7.21239 14.4839C5.93167 14.4996 5.2284 16.0481 5.2284 16.0481C5.2284 16.0481 4.93886 16.7371 4.91855 17.366Z" fill="white"/>
<path d="M8.15145 11.7821C8.15145 11.7821 9.19566 10.9991 10.5828 10.9468C10.5828 10.9468 12.6513 11.1365 13.0543 10.2585C13.0543 10.2585 11.822 9.33502 12.0227 7.99815C12.2233 6.66128 13.4146 5.68785 13.4146 5.68785L13.506 5.58231C13.506 5.58231 14.1179 2.92649 14.3779 2.98319C14.638 3.0399 15.6192 4.59754 15.6192 4.59754L16.7715 4.90756C16.7715 4.90756 17.5214 3.43882 18.0083 3.39766C18.4952 3.35651 19.625 5.86362 19.625 5.86362C19.625 5.86362 20.2372 8.14191 19.7691 9.24612C19.7691 9.24612 19.1917 10.9629 18.7827 11.8617C18.3737 12.7605 18.6097 14.7893 18.6097 14.7893L17.0985 13.8459L15.9244 12.5405L14.501 11.903L13.0019 11.4128L11.3682 11.4074L10.4548 11.4396L9.87095 11.5797L9.44314 11.7179C9.44314 11.7179 9.00197 11.9396 8.99959 11.9385C8.99721 11.9374 8.90594 11.9934 8.886 12.0011C8.86607 12.0088 8.15145 11.7821 8.15145 11.7821Z" fill="white"/>
</g>
<defs>
<clipPath id="clip0_6416_5830">
<rect width="28" height="28" rx="4" fill="white"/>
</clipPath>
</defs>
</svg>
