<svg width="17" height="18" viewBox="0 0 17 18" fill="none" xmlns="http://www.w3.org/2000/svg">
<g clip-path="url(#clip0_8003_23049)">
<path d="M14.7528 15.9551C14.6713 15.9552 14.5906 15.9392 14.5153 15.9079C14.44 15.8766 14.3717 15.8307 14.3143 15.7727L0.179731 1.55394C0.0641459 1.43764 -0.000504233 1.28018 2.96191e-06 1.11621C0.000510157 0.952245 0.0661331 0.795194 0.182435 0.679609C0.298738 0.564024 0.456192 0.499374 0.620161 0.499881C0.78413 0.500388 0.941182 0.566011 1.05677 0.682313L15.191 14.9003C15.2773 14.9869 15.336 15.0971 15.3597 15.217C15.3835 15.3369 15.3711 15.4612 15.3242 15.5741C15.2773 15.687 15.198 15.7834 15.0963 15.8512C14.9946 15.9191 14.8751 15.9552 14.7528 15.9551Z" fill="black"/>
<path d="M12.7084 1.73676C10.8504 1.73676 9.61752 2.87845 8.9638 3.70719C8.31162 2.87729 7.0772 1.73676 5.2192 1.73676C4.81351 1.73647 4.40998 1.7957 4.02148 1.91255L5.1002 2.97311C5.96024 2.97311 6.87011 3.32083 7.57058 4.00353C7.90288 4.3272 8.18599 4.69779 8.41092 5.10349C8.46234 5.20596 8.54125 5.2921 8.63881 5.3523C8.73638 5.4125 8.84877 5.44438 8.96341 5.44438C9.07805 5.44438 9.19044 5.4125 9.28801 5.3523C9.38557 5.2921 9.46448 5.20596 9.5159 5.10349C9.74094 4.69719 10.0243 4.32608 10.357 4.00198C11.0575 3.32083 11.8484 2.97311 12.7084 2.97311C14.3755 2.97311 15.746 4.37675 15.7633 6.10262C15.7842 8.17698 14.8844 9.94883 13.5464 11.4931L14.4207 12.3729C14.5366 12.2399 14.641 12.1163 14.7352 12.0019C16.2807 10.1184 17.0206 8.18471 16.9997 6.09064C16.9757 3.68865 15.0505 1.73676 12.7084 1.73676Z" fill="black"/>
<path d="M8.96298 15.3371C5.57769 13.0386 2.12441 10.1444 2.16305 6.10308C2.16551 5.86377 2.19454 5.62547 2.24959 5.39257L1.27442 4.40851C1.05053 4.94072 0.932426 5.51143 0.926698 6.08879C0.905835 8.18363 1.64649 10.1174 3.19115 12.0001C3.91635 12.8837 5.23113 14.297 8.26753 16.3582C8.4723 16.4986 8.71473 16.5737 8.96298 16.5737C9.21122 16.5737 9.45366 16.4986 9.65843 16.3582C10.4447 15.8247 11.115 15.3344 11.6899 14.8858L10.8144 14.0045C10.209 14.4716 9.58463 14.914 8.96298 15.3371Z" fill="black"/>
</g>
<defs>
<clipPath id="clip0_8003_23049">
<rect width="17" height="17" fill="white" transform="translate(0 0.5)"/>
</clipPath>
</defs>
</svg>
