<svg width="17" height="16" viewBox="0 0 17 16" fill="none" xmlns="http://www.w3.org/2000/svg">
<path fill-rule="evenodd" clip-rule="evenodd" d="M5.05405 4.53958L8.53942 0.789581C8.89828 0.403473 9.4801 0.403473 9.83896 0.789581C10.0113 0.974997 10.1081 1.22647 10.1081 1.48869V14.5113C10.1081 15.0573 9.69669 15.5 9.18919 15.5C8.94548 15.5 8.71175 15.3958 8.53942 15.2104L5.05405 11.4604H0.918919C0.411414 11.4604 0 11.0178 0 10.4717V5.52827C0 4.98223 0.411414 4.53958 0.918919 4.53958H5.05405ZM9.18925 1.48865L5.43474 5.52823H0.91898V10.4717H5.43474L9.18925 14.5113V1.48865ZM14.0672 12.7539C15.2322 11.5005 15.8973 9.80839 15.8973 7.99999C15.8973 6.19158 15.2322 4.4995 14.0672 3.24604L14.8469 2.4071C16.1772 3.83845 17 5.81583 17 7.99999C17 10.1841 16.1772 12.1615 14.8469 13.5929L14.0672 12.7539ZM12.2477 10.7964C12.9333 10.0588 13.3243 9.06418 13.3243 7.99998C13.3243 6.93578 12.9333 5.94119 12.2477 5.20354L13.0274 4.36461C13.8921 5.29498 14.427 6.58028 14.427 7.99998C14.427 9.41968 13.8921 10.705 13.0274 11.6354L12.2477 10.7964Z" fill="black" fill-opacity="0.9"/>
</svg>
