<svg width="17" height="18" fill="currentColor" viewBox="0 0 17 18" xmlns="http://www.w3.org/2000/svg">
<g clip-path="url(#clip0_4740_8720)">
<path d="M5.1 13.5333H4.53333C4.53333 13.8462 4.78704 14.1 5.1 14.1V13.5333ZM11.9 13.5333V14.1C12.2129 14.1 12.4667 13.8462 12.4667 13.5333H11.9ZM5.1 14.1H11.9V12.9667H5.1V14.1ZM12.4667 13.5333V11.2667H11.3333V13.5333H12.4667ZM4.53333 11.2667V13.5333H5.66667V11.2667H4.53333ZM8.5 7.3C6.30927 7.3 4.53333 9.07593 4.53333 11.2667H5.66667C5.66667 9.70186 6.9352 8.43333 8.5 8.43333V7.3ZM12.4667 11.2667C12.4667 9.07593 10.6907 7.3 8.5 7.3V8.43333C10.0648 8.43333 11.3333 9.70186 11.3333 11.2667H12.4667ZM15.8667 13.5333C15.8667 13.8111 15.7377 14.1231 15.4065 14.4587C15.073 14.7967 14.5623 15.1269 13.8865 15.4166C12.5368 15.995 10.6328 16.3667 8.5 16.3667V17.5C10.7486 17.5 12.8113 17.1105 14.3329 16.4582C15.0927 16.1326 15.7438 15.7303 16.2132 15.2548C16.6849 14.7767 17 14.1944 17 13.5333H15.8667ZM8.5 16.3667C6.36718 16.3667 4.46316 15.995 3.1135 15.4166C2.43768 15.1269 1.92696 14.7967 1.59343 14.4587C1.26231 14.1231 1.13333 13.8111 1.13333 13.5333H0C0 14.1944 0.31501 14.7767 0.786784 15.2548C1.25615 15.7303 1.90724 16.1326 2.66706 16.4582C4.18872 17.1105 6.25136 17.5 8.5 17.5V16.3667ZM1.13333 13.5333C1.13333 13.2591 1.25891 12.9517 1.58041 12.6212C1.90449 12.288 2.40132 11.9612 3.0604 11.673L2.60627 10.6346C1.8632 10.9596 1.2267 11.3594 0.767977 11.831C0.306692 12.3053 0 12.8811 0 13.5333H1.13333ZM13.9395 11.673C14.5987 11.9612 15.0955 12.288 15.4196 12.6212C15.7411 12.9517 15.8667 13.2591 15.8667 13.5333H17C17 12.8811 16.6933 12.3053 16.2321 11.831C15.7733 11.3594 15.1368 10.9596 14.3938 10.6346L13.9395 11.673ZM8.5 5.03333C7.56111 5.03333 6.8 4.27222 6.8 3.33333H5.66667C5.66667 4.89814 6.9352 6.16667 8.5 6.16667V5.03333ZM10.2 3.33333C10.2 4.27222 9.43889 5.03333 8.5 5.03333V6.16667C10.0648 6.16667 11.3333 4.89814 11.3333 3.33333H10.2ZM8.5 1.63333C9.43889 1.63333 10.2 2.39445 10.2 3.33333H11.3333C11.3333 1.76853 10.0648 0.5 8.5 0.5V1.63333ZM8.5 0.5C6.9352 0.5 5.66667 1.76853 5.66667 3.33333H6.8C6.8 2.39445 7.56111 1.63333 8.5 1.63333V0.5Z" />
</g>
<defs>
<clipPath id="clip0_4740_8720">
<rect width="17" height="17" fill="white" transform="translate(0 0.5)"/>
</clipPath>
</defs>
</svg>
